<?xml version="1.0" encoding="UTF-8"?>
<svg id="Calque_2" data-name="Calque 2" xmlns="http://www.w3.org/2000/svg" viewBox="0 0 663.99 183.47">
  <defs>
    <style>
      .cls-1 {
        stroke-width: 6px;
      }

      .cls-1, .cls-2 {
        fill: none;
        stroke: #f39323;
        stroke-miterlimit: 10;
      }

      .cls-3 {
        fill: #fff;
      }

      .cls-2 {
        stroke-width: 2px;
      }

      .cls-4 {
        fill: #1d1d1b;
        fill-rule: evenodd;
      }
    </style>
  </defs>
  <g id="Calque_1-2" data-name="Calque 1">
    <g>
      <path class="cls-3" d="M63.19,180.47l-30.31-53.77H15.2v53.77H0V53.02h36.88c11.49,0,20.68,3.2,27.55,9.6,6.7,6.34,10.04,14.75,10.04,25.24,0,4.8-.68,9.2-2.04,13.2-1.36,4-3.44,7.6-6.22,10.8-2.49,2.78-5.17,5.08-8.04,6.89-2.87,1.81-6.33,3.27-10.35,4.4.65,1.13,1.3,2.24,1.96,3.33.65,1.1,1.3,2.24,1.96,3.42,1.36,2.55,2.77,5.1,4.22,7.64,1.45,2.55,2.92,5.15,4.4,7.82,1.84,3.2,3.73,6.5,5.69,9.91,1.96,3.41,3.91,6.8,5.87,10.18.65,1.24,1.36,2.52,2.13,3.82.77,1.3,1.53,2.62,2.27,3.96.74,1.33,1.47,2.61,2.18,3.82.71,1.21,1.36,2.36,1.96,3.42h-17.24ZM15.2,67.51v44.88h17.33c8.18,0,14.72-2.13,19.64-6.4v.09c4.62-4.15,6.93-9.98,6.93-17.51,0-6.64-2.12-11.81-6.35-15.51-4.24-3.7-10.41-5.55-18.53-5.55H15.2Z"/>
      <path class="cls-3" d="M99.1,138.61c.3,4.44,1.04,8.55,2.22,12.31,1.18,3.76,2.81,6.89,4.89,9.38,2.25,2.84,5.04,4.99,8.35,6.44,3.32,1.45,7.05,2.18,11.2,2.18,4.38,0,8.72-.89,13.02-2.67,4.3-1.78,8.66-4.44,13.11-8l7.2,11.64c-5.93,4.27-11.76,7.45-17.51,9.55-5.75,2.1-11.58,3.16-17.51,3.16-11.79,0-21.39-4.33-28.8-12.98-3.61-4.21-6.33-9.2-8.13-14.98-1.81-5.78-2.71-12.52-2.71-20.22,0-6.52.95-12.56,2.84-18.13,1.9-5.57,4.68-10.58,8.35-15.02,3.85-4.38,8.32-7.81,13.42-10.27,5.1-2.46,10.61-3.69,16.53-3.69,11.44,0,20.35,4.18,26.75,12.53,6.04,7.82,9.07,18.52,9.07,32.08v6.67h-62.3ZM146.47,125.02c-.65-7.58-2.81-13.48-6.49-17.69-3.67-4.21-8.59-6.31-14.75-6.31-3.44,0-6.62.61-9.55,1.82-2.93,1.21-5.52,2.95-7.78,5.2-1.9,2.01-3.51,4.46-4.84,7.33-1.33,2.87-2.36,6.09-3.07,9.64h46.48Z"/>
      <path class="cls-3" d="M174.02,158.79c4.92,4.27,9.1,7.02,12.53,8.27v-.09c1.78.53,3.5.99,5.15,1.38,1.66.39,3.08.58,4.27.58,10.96,0,16.44-4.33,16.44-12.98,0-2.84-1.29-5.36-3.87-7.55-2.58-2.19-6.77-4.5-12.58-6.93-8.71-3.85-14.81-7.76-18.31-11.73-1.84-2.13-3.24-4.55-4.22-7.24-.98-2.7-1.47-5.58-1.47-8.66,0-7.94,3.02-14.4,9.07-19.38,5.98-4.74,13.18-7.11,21.6-7.11,3.97,0,8.09.71,12.35,2.13,4.27,1.42,8.74,3.56,13.42,6.4l-5.6,12.89c-3.91-2.61-7.63-4.55-11.15-5.82-3.53-1.27-6.8-1.91-9.82-1.91-4.56,0-8.32,1.21-11.29,3.64h.09c-2.67,2.31-4,5.18-4,8.62,0,1.42.24,2.8.71,4.13.47,1.33,1.1,2.5,1.87,3.51,1.07,1.01,2.73,2.19,4.98,3.55,2.25,1.36,4.89,2.7,7.91,4,9.07,4.21,15.41,8.15,19.02,11.82,3.97,3.97,5.96,9.18,5.96,15.64,0,7.82-2.9,14.25-8.71,19.29-2.78,2.43-6.09,4.27-9.91,5.51-3.82,1.24-8.19,1.87-13.11,1.87-4.5,0-9.05-.89-13.64-2.67-4.59-1.78-9.38-4.44-14.35-8l6.67-13.15Z"/>
      <path class="cls-3" d="M283.25,177.72c-6.28,2.96-11.38,4.44-15.29,4.44-14.64,0-21.95-8.62-21.95-25.86v-53.24h-15.2v-13.6h15.2v-24.53h14.31v24.53h22.22v13.6h-22.22v52.35c0,4.62.64,7.97,1.91,10.04,1.27,2.07,3.54,3.11,6.8,3.11,2.37,0,5.6-1.24,9.69-3.73l4.53,12.89Z"/>
      <path class="cls-3" d="M453.7,107.33c-5.39-3.97-9.45-5.95-12.18-5.95-8.3-.24-15.02,4.5-20.18,14.22v64.88h-14.13v-91.01h14.13v7.11c3.08-2.96,6.34-5.2,9.78-6.71,3.44-1.51,7.08-2.21,10.93-2.09,1.72,0,3.55.21,5.51.62,1.96.41,4,1.13,6.13,2.13v16.8Z"/>
      <path class="cls-3" d="M493.79,87.33c9.84,0,17.39,2.99,22.66,8.98,5.27,5.98,7.91,14.66,7.91,26.04v58.12h-14.22v-11.73c-.95,1.54-2.33,3.14-4.13,4.8-1.81,1.66-3.88,3.15-6.22,4.49-2.34,1.33-4.84,2.43-7.51,3.29-2.67.86-5.33,1.29-8,1.29-4.27,0-8.21-.7-11.82-2.09-3.61-1.39-6.75-3.33-9.42-5.82-5.33-5.21-8-11.76-8-19.64.47-4.98,1.76-9.35,3.87-13.11,2.1-3.76,4.75-6.92,7.95-9.47,3.2-2.55,6.83-4.46,10.89-5.73,4.06-1.27,8.31-1.91,12.75-1.91,1.6,0,3.32.28,5.16.84,1.84.56,3.64,1.29,5.42,2.18,1.78.89,3.45,1.91,5.02,3.07,1.57,1.16,2.89,2.33,3.96,3.51v-12.09c-.3-3.08-.87-5.93-1.73-8.53-.86-2.61-2.01-4.86-3.47-6.75-1.45-1.9-3.17-3.38-5.15-4.44-1.99-1.07-4.22-1.6-6.71-1.6-9.18.12-17.86,3.91-26.04,11.38l-9.33-9.69c5.04-5.21,10.52-9.1,16.44-11.64,5.93-2.55,12.5-3.79,19.73-3.73ZM469.7,155.06c0,4.21,1.33,7.52,4,9.95,2.61,2.61,6.43,3.91,11.46,3.91,3.44,0,6.68-.5,9.73-1.51,3.05-1.01,5.67-2.31,7.87-3.91,1.78-1.54,3.35-3.07,4.71-4.58,1.36-1.51,2.22-2.77,2.58-3.78l-.09.27v-11.47c-3.2-2.07-6.4-3.58-9.6-4.53-3.2-.95-6.31-1.42-9.33-1.42s-5.75.41-8.35,1.24c-2.61.83-4.87,2-6.8,3.51-1.93,1.51-3.44,3.32-4.53,5.42-1.1,2.1-1.64,4.4-1.64,6.89Z"/>
      <path class="cls-3" d="M549.16,180.47h-14.31v-91.01h14.31v7.82c6.99-6.7,15.58-10.01,25.77-9.95,10.19,0,18,3.32,23.42,9.95,5.42,6.64,8.13,16.15,8.13,28.53v54.66h-14.31v-52.35c0-4.27-.43-8.04-1.29-11.33-.86-3.29-2.09-6.06-3.69-8.31-1.6-2.25-3.53-4-5.78-5.24-2.25-1.24-4.77-1.99-7.55-2.22-5.15.71-9.95,2.28-14.4,4.71-4.44,2.43-7.88,5.75-10.31,9.95v64.79Z"/>
      <path class="cls-3" d="M663.99,177.72c-6.28,2.96-11.38,4.44-15.29,4.44-14.63,0-21.95-8.62-21.95-25.86v-53.24h-15.2v-13.6h15.2v-24.53h14.31v24.53h22.22v13.6h-22.22v52.35c0,4.62.64,7.97,1.91,10.04,1.27,2.07,3.54,3.11,6.8,3.11,2.37,0,5.6-1.24,9.69-3.73l4.53,12.89Z"/>
    </g>
    <g>
      <path class="cls-1" d="M401.1,123.36c0,31.53-25.56,57.11-57.1,57.11s-57.1-25.58-57.1-57.11,25.56-57.1,57.1-57.1,57.1,25.56,57.1,57.1Z"/>
      <circle class="cls-2" cx="344" cy="123.36" r="46.34"/>
    </g>
  </g>
  <g id="Calque_2-2" data-name="Calque 2">
    <path class="cls-4" d="M248.45,121.29c.68-15.29,2.21-30.54,3.42-45.81.32-4.05-1.32-6.84-4.5-9.34-11.28-8.84-16.56-20.58-13.65-34.66,1.58-7.63,4.6-15.38,8.71-21.99,6.43-10.35,16.44-10.29,24.31-.99,5.86,6.93,9.08,16.89,9.04,31.37.12,7.83-3.36,17.59-12.67,24.5-4.38,3.25-5.83,7.16-5.36,12.47,1.67,19.05-3.91,38.92-3.35,58.02"/>
    <path class="cls-4" d="M631.58,84.68c.1-3.99.51-8.13-.34-11.94-.65-2.92-2.47-6.8-4.85-7.88-5.19-2.34-7.01-5.96-6.74-10.99.96-17.76,2.1-35.51,3.16-53.27.56-.07,1.12-.15,1.69-.22v42.36c.9,0,1.8.02,2.7.03.61-14.16,1.23-28.33,1.84-42.49.37,0,.73-.02,1.1-.03.77,14.05,1.55,28.09,2.32,42.14.64,0,1.28,0,1.92,0V.28c.62-.02,1.23-.04,1.84-.07.99,14.22,1.98,28.44,2.98,42.66.62-.03,1.24-.06,1.87-.08V.08c.45-.03.9-.05,1.35-.08.67,5.61,1.35,11.22,2.01,16.83,1.3,11.07,2.62,22.14,3.86,33.22.26,2.31.5,4.68.25,6.97-.37,3.46-1.68,6.56-5.57,7.42-4.67,1.04-5.98,3.89-5.44,8.42,1.95,16.36.18,32.76,2.22,49.1"/>
  </g>
</svg>